<svg id="visual" viewBox="0 0 960 540" width="960" height="540" xmlns="http://www.w3.org/2000/svg" xmlns:xlink="http://www.w3.org/1999/xlink" version="1.1"><rect x="0" y="0" width="960" height="540" fill="#000000"></rect><defs><linearGradient id="grad1_0" x1="43.8%" y1="0%" x2="100%" y2="100%"><stop offset="14.444444444444446%" stop-color="#ff00f0" stop-opacity="1"></stop><stop offset="85.55555555555554%" stop-color="#ff00f0" stop-opacity="1"></stop></linearGradient></defs><defs><linearGradient id="grad1_1" x1="43.8%" y1="0%" x2="100%" y2="100%"><stop offset="14.444444444444446%" stop-color="#ff00f0" stop-opacity="1"></stop><stop offset="85.55555555555554%" stop-color="#e000d3" stop-opacity="1"></stop></linearGradient></defs><defs><linearGradient id="grad1_2" x1="43.8%" y1="0%" x2="100%" y2="100%"><stop offset="14.444444444444446%" stop-color="#c200b8" stop-opacity="1"></stop><stop offset="85.55555555555554%" stop-color="#e000d3" stop-opacity="1"></stop></linearGradient></defs><defs><linearGradient id="grad1_3" x1="43.8%" y1="0%" x2="100%" y2="100%"><stop offset="14.444444444444446%" stop-color="#c200b8" stop-opacity="1"></stop><stop offset="85.55555555555554%" stop-color="#a4009c" stop-opacity="1"></stop></linearGradient></defs><defs><linearGradient id="grad1_4" x1="43.8%" y1="0%" x2="100%" y2="100%"><stop offset="14.444444444444446%" stop-color="#860082" stop-opacity="1"></stop><stop offset="85.55555555555554%" stop-color="#a4009c" stop-opacity="1"></stop></linearGradient></defs><defs><linearGradient id="grad1_5" x1="43.8%" y1="0%" x2="100%" y2="100%"><stop offset="14.444444444444446%" stop-color="#860082" stop-opacity="1"></stop><stop offset="85.55555555555554%" stop-color="#680068" stop-opacity="1"></stop></linearGradient></defs><defs><linearGradient id="grad1_6" x1="43.8%" y1="0%" x2="100%" y2="100%"><stop offset="14.444444444444446%" stop-color="#000000" stop-opacity="1"></stop><stop offset="85.55555555555554%" stop-color="#680068" stop-opacity="1"></stop></linearGradient></defs><defs><linearGradient id="grad2_0" x1="0%" y1="0%" x2="56.3%" y2="100%"><stop offset="14.444444444444446%" stop-color="#ff00f0" stop-opacity="1"></stop><stop offset="85.55555555555554%" stop-color="#ff00f0" stop-opacity="1"></stop></linearGradient></defs><defs><linearGradient id="grad2_1" x1="0%" y1="0%" x2="56.3%" y2="100%"><stop offset="14.444444444444446%" stop-color="#e000d3" stop-opacity="1"></stop><stop offset="85.55555555555554%" stop-color="#ff00f0" stop-opacity="1"></stop></linearGradient></defs><defs><linearGradient id="grad2_2" x1="0%" y1="0%" x2="56.3%" y2="100%"><stop offset="14.444444444444446%" stop-color="#e000d3" stop-opacity="1"></stop><stop offset="85.55555555555554%" stop-color="#c200b8" stop-opacity="1"></stop></linearGradient></defs><defs><linearGradient id="grad2_3" x1="0%" y1="0%" x2="56.3%" y2="100%"><stop offset="14.444444444444446%" stop-color="#a4009c" stop-opacity="1"></stop><stop offset="85.55555555555554%" stop-color="#c200b8" stop-opacity="1"></stop></linearGradient></defs><defs><linearGradient id="grad2_4" x1="0%" y1="0%" x2="56.3%" y2="100%"><stop offset="14.444444444444446%" stop-color="#a4009c" stop-opacity="1"></stop><stop offset="85.55555555555554%" stop-color="#860082" stop-opacity="1"></stop></linearGradient></defs><defs><linearGradient id="grad2_5" x1="0%" y1="0%" x2="56.3%" y2="100%"><stop offset="14.444444444444446%" stop-color="#680068" stop-opacity="1"></stop><stop offset="85.55555555555554%" stop-color="#860082" stop-opacity="1"></stop></linearGradient></defs><defs><linearGradient id="grad2_6" x1="0%" y1="0%" x2="56.3%" y2="100%"><stop offset="14.444444444444446%" stop-color="#680068" stop-opacity="1"></stop><stop offset="85.55555555555554%" stop-color="#000000" stop-opacity="1"></stop></linearGradient></defs><g transform="translate(960, 0)"><path d="M0 270C-22.4 263.6 -44.7 257.2 -67.3 251.1C-89.9 245 -112.6 239.2 -130 225.2C-147.4 211.1 -159.3 188.9 -169.7 169.7C-180.1 150.5 -188.9 134.2 -206.1 119C-223.3 103.8 -248.8 89.5 -260.8 69.9C-272.8 50.2 -271.4 25.1 -270 0L0 0Z" fill="#5a005c"></path><path d="M0 231.4C-19.2 226 -38.3 220.5 -57.7 215.3C-77 210 -96.5 205 -111.4 193C-126.3 181 -136.6 161.9 -145.5 145.5C-154.4 129 -162 115.1 -176.7 102C-191.4 88.9 -213.2 76.8 -223.5 59.9C-233.9 43 -232.6 21.5 -231.4 0L0 0Z" fill="#770075"></path><path d="M0 192.9C-16 188.3 -31.9 183.7 -48.1 179.4C-64.2 175 -80.5 170.9 -92.9 160.8C-105.3 150.8 -113.8 135 -121.2 121.2C-128.6 107.5 -135 95.9 -147.2 85C-159.5 74.1 -177.7 64 -186.3 49.9C-194.9 35.9 -193.9 17.9 -192.9 0L0 0Z" fill="#95008f"></path><path d="M0 154.3C-12.8 150.6 -25.6 147 -38.5 143.5C-51.3 140 -64.4 136.7 -74.3 128.7C-84.2 120.7 -91 108 -97 97C-102.9 86 -108 76.7 -117.8 68C-127.6 59.3 -142.2 51.2 -149 39.9C-155.9 28.7 -155.1 14.3 -154.3 0L0 0Z" fill="#b300aa"></path><path d="M0 115.7C-9.6 113 -19.2 110.2 -28.8 107.6C-38.5 105 -48.3 102.5 -55.7 96.5C-63.2 90.5 -68.3 81 -72.7 72.7C-77.2 64.5 -81 57.5 -88.3 51C-95.7 44.5 -106.6 38.4 -111.8 29.9C-116.9 21.5 -116.3 10.8 -115.7 0L0 0Z" fill="#d100c5"></path><path d="M0 77.1C-6.4 75.3 -12.8 73.5 -19.2 71.8C-25.7 70 -32.2 68.3 -37.1 64.3C-42.1 60.3 -45.5 54 -48.5 48.5C-51.5 43 -54 38.4 -58.9 34C-63.8 29.6 -71.1 25.6 -74.5 20C-78 14.3 -77.5 7.2 -77.1 0L0 0Z" fill="#f000e2"></path><path d="M0 38.6C-3.2 37.7 -6.4 36.7 -9.6 35.9C-12.8 35 -16.1 34.2 -18.6 32.2C-21.1 30.2 -22.8 27 -24.2 24.2C-25.7 21.5 -27 19.2 -29.4 17C-31.9 14.8 -35.5 12.8 -37.3 10C-39 7.2 -38.8 3.6 -38.6 0L0 0Z" fill="#ff00f0"></path></g><g transform="translate(0, 540)"><path d="M0 -270C21.2 -257.5 42.3 -245.1 63.9 -238.6C85.5 -232.1 107.6 -231.6 130.5 -226C153.4 -220.4 177.1 -209.7 190.9 -190.9C204.7 -172.1 208.5 -145.3 212.2 -122.5C215.8 -99.7 219.3 -81.1 228.9 -61.3C238.5 -41.6 254.3 -20.8 270 0L0 0Z" fill="#5a005c"></path><path d="M0 -231.4C18.1 -220.7 36.3 -210 54.8 -204.5C73.3 -199 92.2 -198.5 111.9 -193.7C131.5 -188.9 151.8 -179.8 163.6 -163.6C175.5 -147.5 178.7 -124.5 181.9 -105C185 -85.5 188 -69.5 196.2 -52.6C204.5 -35.7 217.9 -17.8 231.4 0L0 0Z" fill="#770075"></path><path d="M0 -192.9C15.1 -183.9 30.2 -175 45.7 -170.4C61.1 -165.8 76.9 -165.5 93.2 -161.5C109.6 -157.5 126.5 -149.8 136.4 -136.4C146.2 -122.9 148.9 -103.8 151.6 -87.5C154.2 -71.2 156.7 -57.9 163.5 -43.8C170.4 -29.7 181.6 -14.9 192.9 0L0 0Z" fill="#95008f"></path><path d="M0 -154.3C12.1 -147.2 24.2 -140 36.5 -136.3C48.9 -132.6 61.5 -132.4 74.6 -129.2C87.7 -126 101.2 -119.8 109.1 -109.1C117 -98.4 119.2 -83 121.2 -70C123.3 -57 125.3 -46.3 130.8 -35.1C136.3 -23.8 145.3 -11.9 154.3 0L0 0Z" fill="#b300aa"></path><path d="M0 -115.7C9.1 -110.4 18.1 -105 27.4 -102.3C36.7 -99.5 46.1 -99.3 55.9 -96.9C65.7 -94.5 75.9 -89.9 81.8 -81.8C87.7 -73.8 89.4 -62.3 90.9 -52.5C92.5 -42.7 94 -34.7 98.1 -26.3C102.2 -17.8 109 -8.9 115.7 0L0 0Z" fill="#d100c5"></path><path d="M0 -77.1C6 -73.6 12.1 -70 18.3 -68.2C24.4 -66.3 30.7 -66.2 37.3 -64.6C43.8 -63 50.6 -59.9 54.5 -54.5C58.5 -49.2 59.6 -41.5 60.6 -35C61.7 -28.5 62.7 -23.2 65.4 -17.5C68.2 -11.9 72.6 -5.9 77.1 0L0 0Z" fill="#f000e2"></path><path d="M0 -38.6C3 -36.8 6 -35 9.1 -34.1C12.2 -33.2 15.4 -33.1 18.6 -32.3C21.9 -31.5 25.3 -30 27.3 -27.3C29.2 -24.6 29.8 -20.8 30.3 -17.5C30.8 -14.2 31.3 -11.6 32.7 -8.8C34.1 -5.9 36.3 -3 38.6 0L0 0Z" fill="#ff00f0"></path></g></svg>