<?xml version="1.0" encoding="UTF-8" standalone="no"?>
<!-- Created with Inkscape (http://www.inkscape.org/) -->

<svg
   width="2480"
   height="2480"
   id="svg2"
   version="1.1"
   inkscape:version="1.3.2 (091e20e, 2023-11-25, custom)"
   sodipodi:docname="favicon.svg"
   inkscape:export-filename="logo_black_bgwhite_2480x2480.png"
   inkscape:export-xdpi="96"
   inkscape:export-ydpi="96"
   xmlns:inkscape="http://www.inkscape.org/namespaces/inkscape"
   xmlns:sodipodi="http://sodipodi.sourceforge.net/DTD/sodipodi-0.dtd"
   xmlns="http://www.w3.org/2000/svg"
   xmlns:svg="http://www.w3.org/2000/svg"
   xmlns:rdf="http://www.w3.org/1999/02/22-rdf-syntax-ns#"
   xmlns:cc="http://creativecommons.org/ns#"
   xmlns:dc="http://purl.org/dc/elements/1.1/">
  <defs
     id="defs4" />
  <sodipodi:namedview
     id="base"
     pagecolor="#ffffff"
     bordercolor="#666666"
     borderopacity="1.0"
     inkscape:pageopacity="0.0"
     inkscape:pageshadow="2"
     inkscape:zoom="0.12817383"
     inkscape:cx="-198.94857"
     inkscape:cy="1365.3333"
     inkscape:document-units="px"
     inkscape:current-layer="layer1"
     showgrid="false"
     inkscape:window-width="2560"
     inkscape:window-height="1476"
     inkscape:window-x="-12"
     inkscape:window-y="-12"
     inkscape:window-maximized="1"
     units="cm"
     width="70cm"
     inkscape:showpageshadow="2"
     inkscape:pagecheckerboard="0"
     inkscape:deskcolor="#d1d1d1"
     inkscape:export-bgcolor="#ffffffff" />
  <metadata
     id="metadata7">
    <rdf:RDF>
      <cc:Work
         rdf:about="">
        <dc:format>image/svg+xml</dc:format>
        <dc:type
           rdf:resource="http://purl.org/dc/dcmitype/StillImage" />
      </cc:Work>
    </rdf:RDF>
  </metadata>
  <g
     inkscape:label="Vrstva 1"
     inkscape:groupmode="layer"
     id="layer1"
     transform="translate(0,542.12557)">
    <g
       id="g1"
       transform="matrix(8.8156807,0,0,8.8156807,-7296.2982,-4955.3608)">
      <g
         id="g3929"
         transform="matrix(0.78272371,0,0,0.78272371,121.33583,111.49437)"
         style="stroke:#000000;stroke-width:2.26345;stroke-miterlimit:4;stroke-dasharray:none;stroke-opacity:1">
        <path
           style="fill:none;stroke:#ffffff;stroke-width:2.26345;stroke-linecap:butt;stroke-linejoin:miter;stroke-miterlimit:4;stroke-dasharray:none;stroke-opacity:1"
           d="m 802.7117,508.85458 c 0,0 -124.37751,18.88255 -138.23528,-25.90288 -4.04963,-13.08756 18.15973,-19.46485 29.06161,-29.06161 12.49449,-10.9987 27.61003,-28.00883 27.09133,-44.33126 -0.60189,-18.93998 -41.93553,-1.78759 -55.66037,-15.26966 -17.23471,-16.92986 -40.687,-30.014 -68.95975,-28.07647 -35.9032,2.46045 -47.90871,31.82472 -50.73467,57.13807 -2.64169,23.6628 10.88077,59.39585 34.47988,62.55635 14.96118,2.00367 30.31333,-17.46351 31.52445,-32.5096 2.39373,-29.73807 -51.22724,-73.39287 -51.22724,-73.39287"
           id="path3850"
           inkscape:connector-curvature="0"
           sodipodi:nodetypes="cassssaaac" />
        <path
           style="fill:none;stroke:#ffffff;stroke-width:2.26345;stroke-linecap:butt;stroke-linejoin:miter;stroke-miterlimit:4;stroke-dasharray:none;stroke-opacity:1"
           d="m 639.72479,401.67771 c -4.82516,-1.90255 -11.18444,-4.23717 -16.99365,2.21656"
           id="path3852"
           inkscape:connector-curvature="0"
           sodipodi:nodetypes="cc" />
        <path
           style="fill:#ffffff;fill-opacity:1;stroke:#ffffff;stroke-width:2.26345;stroke-linecap:butt;stroke-linejoin:miter;stroke-miterlimit:4;stroke-dasharray:none;stroke-opacity:1"
           d="m 687.93505,400.13843 c 1.29258,10e-4 16.32421,-0.7064 23.95119,0.862 4.61334,0.94868 7.40646,3.63723 8.34291,7.54247 0.72117,3.00743 -3.07701,11.34402 -2.99471,11.45924 0,0 -14.66056,-2.08437 -20.34078,-6.34883 -4.32229,-3.24498 -8.95861,-13.51488 -8.95861,-13.51488 z"
           id="path3858"
           inkscape:connector-curvature="0"
           sodipodi:nodetypes="csscac" />
        <path
           style="fill:none;stroke:#ffffff;stroke-width:2.26345;stroke-linecap:butt;stroke-linejoin:miter;stroke-miterlimit:4;stroke-dasharray:none;stroke-opacity:1"
           d="m 314.45541,508.67452 c 0,0 124.10206,18.95621 137.94857,-25.72282 4.05542,-13.08577 -18.15973,-19.46485 -29.06161,-29.06161 -12.49449,-10.9987 -27.61003,-28.00883 -27.09133,-44.33126 0.60189,-18.93998 42.96233,-0.81638 55.66037,-15.26966 16.07484,-18.29685 25.16348,-30.12656 60.94887,-25.81252 5.05393,0.60927 4.0068,0.0932 5.24659,-2.5732 3.5706,-7.67917 -5.14129,-28.97581 2.47362,-42.68751 5.93576,8.39114 17.20277,16.72853 23.98584,26.53367 6.49618,9.39044 12.30336,26.1094 15.67774,30.45709"
           id="path3867"
           inkscape:connector-curvature="0"
           sodipodi:nodetypes="cassssscac" />
        <path
           style="fill:none;stroke:#ffffff;stroke-width:2.26345;stroke-linecap:butt;stroke-linejoin:miter;stroke-miterlimit:4;stroke-dasharray:none;stroke-opacity:1"
           d="m 477.15561,401.67771 c 4.82516,-1.90255 11.18444,-4.23717 16.99365,2.21656"
           id="path3869"
           inkscape:connector-curvature="0"
           sodipodi:nodetypes="cc" />
        <path
           style="fill:#ffffff;fill-opacity:1;stroke:#ffffff;stroke-width:2.26345;stroke-linecap:butt;stroke-linejoin:miter;stroke-miterlimit:4;stroke-dasharray:none;stroke-opacity:1"
           d="m 428.84369,400.58742 c -1.29258,10e-4 -16.22255,-1.15539 -23.84953,0.41301 -4.61334,0.94868 -7.40646,3.63723 -8.34291,7.54247 -0.72117,3.00743 3.25593,11.70252 3.17363,11.81774 0,0 14.45828,-2.05325 20.0602,-6.25834 4.32251,-3.2447 8.95861,-13.51488 8.95861,-13.51488 z"
           id="path3871"
           inkscape:connector-curvature="0"
           sodipodi:nodetypes="csscac" />
      </g>
      <text
         xml:space="preserve"
         style="font-style:normal;font-variant:normal;font-weight:normal;font-stretch:normal;line-height:0%;font-family:'Segoe Script';-inkscape-font-specification:'Segoe Script';text-align:center;letter-spacing:0px;word-spacing:0px;writing-mode:lr-tb;text-anchor:middle;fill:#ffffff;fill-opacity:1;stroke:none"
         x="558.46277"
         y="535.71143"
         id="text3948"><tspan
           sodipodi:role="line"
           x="558.46277"
           y="535.71143"
           id="tspan3952"
           dy="8.8199997"
           style="font-size:30.7748px;line-height:1.25;fill:#ffffff;fill-opacity:1">TRENDY DOG </tspan><tspan
           style="font-size:30.7748px;line-height:1.25;fill:#ffffff;fill-opacity:1;stroke:none"
           sodipodi:role="line"
           x="558.46277"
           y="574.17993"
           id="tspan3956">psí salón</tspan></text>
    </g>
    <g
       id="g2"
       transform="matrix(1.356266,0,0,1.356266,-441.98336,351.86586)">
      <g
         id="g6"
         transform="matrix(5.0876756,0,0,5.0876756,-1601.7319,-2089.6813)"
         style="stroke:#000000;stroke-width:2.26345;stroke-miterlimit:4;stroke-dasharray:none;stroke-opacity:1">
        <path
           style="fill:none;stroke:#000000;stroke-width:2.26345;stroke-linecap:butt;stroke-linejoin:miter;stroke-miterlimit:4;stroke-dasharray:none;stroke-opacity:1"
           d="m 802.7117,508.85458 c 0,0 -124.37751,18.88255 -138.23528,-25.90288 -4.04963,-13.08756 18.15973,-19.46485 29.06161,-29.06161 12.49449,-10.9987 27.61003,-28.00883 27.09133,-44.33126 -0.60189,-18.93998 -41.93553,-1.78759 -55.66037,-15.26966 -17.23471,-16.92986 -40.687,-30.014 -68.95975,-28.07647 -35.9032,2.46045 -47.90871,31.82472 -50.73467,57.13807 -2.64169,23.6628 10.88077,59.39585 34.47988,62.55635 14.96118,2.00367 30.31333,-17.46351 31.52445,-32.5096 2.39373,-29.73807 -51.22724,-73.39287 -51.22724,-73.39287"
           id="path1"
           inkscape:connector-curvature="0"
           sodipodi:nodetypes="cassssaaac" />
        <path
           style="fill:none;stroke:#000000;stroke-width:2.26345;stroke-linecap:butt;stroke-linejoin:miter;stroke-miterlimit:4;stroke-dasharray:none;stroke-opacity:1"
           d="m 639.72479,401.67771 c -4.82516,-1.90255 -11.18444,-4.23717 -16.99365,2.21656"
           id="path2"
           inkscape:connector-curvature="0"
           sodipodi:nodetypes="cc" />
        <path
           style="fill:#000000;fill-opacity:1;stroke:#000000;stroke-width:2.26345;stroke-linecap:butt;stroke-linejoin:miter;stroke-miterlimit:4;stroke-dasharray:none;stroke-opacity:1"
           d="m 687.93505,400.13843 c 1.29258,10e-4 16.32421,-0.7064 23.95119,0.862 4.61334,0.94868 7.40646,3.63723 8.34291,7.54247 0.72117,3.00743 -3.07701,11.34402 -2.99471,11.45924 0,0 -14.66056,-2.08437 -20.34078,-6.34883 -4.32229,-3.24498 -8.95861,-13.51488 -8.95861,-13.51488 z"
           id="path3"
           inkscape:connector-curvature="0"
           sodipodi:nodetypes="csscac" />
        <path
           style="fill:none;stroke:#000000;stroke-width:2.26345;stroke-linecap:butt;stroke-linejoin:miter;stroke-miterlimit:4;stroke-dasharray:none;stroke-opacity:1"
           d="m 314.45541,508.67452 c 0,0 124.10206,18.95621 137.94857,-25.72282 4.05542,-13.08577 -18.15973,-19.46485 -29.06161,-29.06161 -12.49449,-10.9987 -27.61003,-28.00883 -27.09133,-44.33126 0.60189,-18.93998 42.96233,-0.81638 55.66037,-15.26966 16.07484,-18.29685 25.16348,-30.12656 60.94887,-25.81252 5.05393,0.60927 4.0068,0.0932 5.24659,-2.5732 3.5706,-7.67917 -5.14129,-28.97581 2.47362,-42.68751 5.93576,8.39114 17.20277,16.72853 23.98584,26.53367 6.49618,9.39044 12.30336,26.1094 15.67774,30.45709"
           id="path4"
           inkscape:connector-curvature="0"
           sodipodi:nodetypes="cassssscac" />
        <path
           style="fill:none;stroke:#000000;stroke-width:2.26345;stroke-linecap:butt;stroke-linejoin:miter;stroke-miterlimit:4;stroke-dasharray:none;stroke-opacity:1"
           d="m 477.15561,401.67771 c 4.82516,-1.90255 11.18444,-4.23717 16.99365,2.21656"
           id="path5"
           inkscape:connector-curvature="0"
           sodipodi:nodetypes="cc" />
        <path
           style="fill:#000000;fill-opacity:1;stroke:#000000;stroke-width:2.26345;stroke-linecap:butt;stroke-linejoin:miter;stroke-miterlimit:4;stroke-dasharray:none;stroke-opacity:1"
           d="m 428.84369,400.58742 c -1.29258,10e-4 -16.22255,-1.15539 -23.84953,0.41301 -4.61334,0.94868 -7.40646,3.63723 -8.34291,7.54247 -0.72117,3.00743 3.25593,11.70252 3.17363,11.81774 0,0 14.45828,-2.05325 20.0602,-6.25834 4.32251,-3.2447 8.95861,-13.51488 8.95861,-13.51488 z"
           id="path6"
           inkscape:connector-curvature="0"
           sodipodi:nodetypes="csscac" />
      </g>
      <text
         xml:space="preserve"
         style="font-style:normal;font-variant:normal;font-weight:normal;font-stretch:normal;font-size:77.9996px;line-height:0%;font-family:'Segoe Script';-inkscape-font-specification:'Segoe Script';text-align:center;letter-spacing:0px;word-spacing:0px;writing-mode:lr-tb;text-anchor:middle;fill:#000000;fill-opacity:1;stroke:none;stroke-width:6.49996"
         x="1239.5773"
         y="667.71417"
         id="text7"><tspan
           sodipodi:role="line"
           x="1239.5773"
           y="667.71417"
           id="tspan6"
           dy="57.329678"
           style="font-size:200.035px;line-height:1.25;fill:#000000;fill-opacity:1;stroke-width:6.49996">TRENDY DOG </tspan><tspan
           style="font-size:200.035px;line-height:1.25;fill:#000000;fill-opacity:1;stroke:none;stroke-width:6.49996"
           sodipodi:role="line"
           x="1239.5773"
           y="917.75793"
           id="tspan7">psí salón</tspan></text>
    </g>
  </g>
</svg>
