<?xml version="1.0" encoding="UTF-8" standalone="no"?>
<!-- Created with Inkscape (http://www.inkscape.org/) -->

<svg
   width="2480.3149"
   height="1594.4882"
   id="svg2"
   version="1.1"
   inkscape:version="1.3.2 (091e20e, 2023-11-25, custom)"
   sodipodi:docname="logo.svg"
   inkscape:export-filename="..\..\..\web_salon\src\images\logo_white_2480x1594.png"
   inkscape:export-xdpi="96"
   inkscape:export-ydpi="96"
   xmlns:inkscape="http://www.inkscape.org/namespaces/inkscape"
   xmlns:sodipodi="http://sodipodi.sourceforge.net/DTD/sodipodi-0.dtd"
   xmlns="http://www.w3.org/2000/svg"
   xmlns:svg="http://www.w3.org/2000/svg"
   xmlns:rdf="http://www.w3.org/1999/02/22-rdf-syntax-ns#"
   xmlns:cc="http://creativecommons.org/ns#"
   xmlns:dc="http://purl.org/dc/elements/1.1/">
  <defs
     id="defs4" />
  <sodipodi:namedview
     id="base"
     pagecolor="#ffffff"
     bordercolor="#666666"
     borderopacity="1.0"
     inkscape:pageopacity="0.0"
     inkscape:pageshadow="2"
     inkscape:zoom="0.72506067"
     inkscape:cx="1368.1614"
     inkscape:cy="753.04043"
     inkscape:document-units="px"
     inkscape:current-layer="g3980"
     showgrid="false"
     inkscape:window-width="4480"
     inkscape:window-height="2396"
     inkscape:window-x="4468"
     inkscape:window-y="-12"
     inkscape:window-maximized="1"
     units="cm"
     width="70cm"
     inkscape:showpageshadow="2"
     inkscape:pagecheckerboard="0"
     inkscape:deskcolor="#d1d1d1" />
  <metadata
     id="metadata7">
    <rdf:RDF>
      <cc:Work
         rdf:about="">
        <dc:format>image/svg+xml</dc:format>
        <dc:type
           rdf:resource="http://purl.org/dc/dcmitype/StillImage" />
      </cc:Work>
    </rdf:RDF>
  </metadata>
  <g
     inkscape:label="Vrstva 1"
     inkscape:groupmode="layer"
     id="layer1"
     transform="translate(0,542.12557)">
    <g
       id="g3992"
       transform="matrix(2.5196469,0,0,2.5196469,-85.633082,-1459.0349)">
      <g
         transform="matrix(2.5797121,0,0,2.5797121,-914.43389,-538.91573)"
         id="g3980">
        <g
           id="g1"
           transform="translate(-630.15737,-23.405845)">
          <g
             id="g3929"
             transform="matrix(0.78272371,0,0,0.78272371,121.33583,111.49437)"
             style="stroke:#000000;stroke-width:2.26345;stroke-miterlimit:4;stroke-dasharray:none;stroke-opacity:1">
            <path
               style="fill:none;stroke:#ffffff;stroke-width:2.26345;stroke-linecap:butt;stroke-linejoin:miter;stroke-miterlimit:4;stroke-dasharray:none;stroke-opacity:1"
               d="m 802.7117,508.85458 c 0,0 -124.37751,18.88255 -138.23528,-25.90288 -4.04963,-13.08756 18.15973,-19.46485 29.06161,-29.06161 12.49449,-10.9987 27.61003,-28.00883 27.09133,-44.33126 -0.60189,-18.93998 -41.93553,-1.78759 -55.66037,-15.26966 -17.23471,-16.92986 -40.687,-30.014 -68.95975,-28.07647 -35.9032,2.46045 -47.90871,31.82472 -50.73467,57.13807 -2.64169,23.6628 10.88077,59.39585 34.47988,62.55635 14.96118,2.00367 30.31333,-17.46351 31.52445,-32.5096 2.39373,-29.73807 -51.22724,-73.39287 -51.22724,-73.39287"
               id="path3850"
               inkscape:connector-curvature="0"
               sodipodi:nodetypes="cassssaaac" />
            <path
               style="fill:none;stroke:#ffffff;stroke-width:2.26345;stroke-linecap:butt;stroke-linejoin:miter;stroke-miterlimit:4;stroke-dasharray:none;stroke-opacity:1"
               d="m 639.72479,401.67771 c -4.82516,-1.90255 -11.18444,-4.23717 -16.99365,2.21656"
               id="path3852"
               inkscape:connector-curvature="0"
               sodipodi:nodetypes="cc" />
            <path
               style="fill:#ffffff;fill-opacity:1;stroke:#ffffff;stroke-width:2.26345;stroke-linecap:butt;stroke-linejoin:miter;stroke-miterlimit:4;stroke-dasharray:none;stroke-opacity:1"
               d="m 687.93505,400.13843 c 1.29258,10e-4 16.32421,-0.7064 23.95119,0.862 4.61334,0.94868 7.40646,3.63723 8.34291,7.54247 0.72117,3.00743 -3.07701,11.34402 -2.99471,11.45924 0,0 -14.66056,-2.08437 -20.34078,-6.34883 -4.32229,-3.24498 -8.95861,-13.51488 -8.95861,-13.51488 z"
               id="path3858"
               inkscape:connector-curvature="0"
               sodipodi:nodetypes="csscac" />
            <path
               style="fill:none;stroke:#ffffff;stroke-width:2.26345;stroke-linecap:butt;stroke-linejoin:miter;stroke-miterlimit:4;stroke-dasharray:none;stroke-opacity:1"
               d="m 314.45541,508.67452 c 0,0 124.10206,18.95621 137.94857,-25.72282 4.05542,-13.08577 -18.15973,-19.46485 -29.06161,-29.06161 -12.49449,-10.9987 -27.61003,-28.00883 -27.09133,-44.33126 0.60189,-18.93998 42.96233,-0.81638 55.66037,-15.26966 16.07484,-18.29685 25.16348,-30.12656 60.94887,-25.81252 5.05393,0.60927 4.0068,0.0932 5.24659,-2.5732 3.5706,-7.67917 -5.14129,-28.97581 2.47362,-42.68751 5.93576,8.39114 17.20277,16.72853 23.98584,26.53367 6.49618,9.39044 12.30336,26.1094 15.67774,30.45709"
               id="path3867"
               inkscape:connector-curvature="0"
               sodipodi:nodetypes="cassssscac" />
            <path
               style="fill:none;stroke:#ffffff;stroke-width:2.26345;stroke-linecap:butt;stroke-linejoin:miter;stroke-miterlimit:4;stroke-dasharray:none;stroke-opacity:1"
               d="m 477.15561,401.67771 c 4.82516,-1.90255 11.18444,-4.23717 16.99365,2.21656"
               id="path3869"
               inkscape:connector-curvature="0"
               sodipodi:nodetypes="cc" />
            <path
               style="fill:#ffffff;fill-opacity:1;stroke:#ffffff;stroke-width:2.26345;stroke-linecap:butt;stroke-linejoin:miter;stroke-miterlimit:4;stroke-dasharray:none;stroke-opacity:1"
               d="m 428.84369,400.58742 c -1.29258,10e-4 -16.22255,-1.15539 -23.84953,0.41301 -4.61334,0.94868 -7.40646,3.63723 -8.34291,7.54247 -0.72117,3.00743 3.25593,11.70252 3.17363,11.81774 0,0 14.45828,-2.05325 20.0602,-6.25834 4.32251,-3.2447 8.95861,-13.51488 8.95861,-13.51488 z"
               id="path3871"
               inkscape:connector-curvature="0"
               sodipodi:nodetypes="csscac" />
          </g>
          <text
             xml:space="preserve"
             style="font-style:normal;font-variant:normal;font-weight:normal;font-stretch:normal;line-height:0%;font-family:'Segoe Script';-inkscape-font-specification:'Segoe Script';text-align:center;letter-spacing:0px;word-spacing:0px;writing-mode:lr-tb;text-anchor:middle;fill:#ffffff;fill-opacity:1;stroke:none"
             x="558.46277"
             y="535.71143"
             id="text3948"><tspan
               sodipodi:role="line"
               x="558.46277"
               y="535.71143"
               id="tspan3952"
               dy="8.8199997"
               style="font-size:30.7748px;line-height:1.25;fill:#ffffff;fill-opacity:1">TRENDY DOG </tspan><tspan
               style="font-size:30.7748px;line-height:1.25;fill:#ffffff;fill-opacity:1;stroke:none"
               sodipodi:role="line"
               x="558.46277"
               y="574.17993"
               id="tspan3956">psí salón</tspan></text>
        </g>
        <g
           id="g6"
           transform="matrix(0.78272371,0,0,0.78272371,121.22402,111.88231)"
           style="stroke:#000000;stroke-width:2.26345;stroke-miterlimit:4;stroke-dasharray:none;stroke-opacity:1">
          <path
             style="fill:none;stroke:#000000;stroke-width:2.26345;stroke-linecap:butt;stroke-linejoin:miter;stroke-miterlimit:4;stroke-dasharray:none;stroke-opacity:1"
             d="m 802.7117,508.85458 c 0,0 -124.37751,18.88255 -138.23528,-25.90288 -4.04963,-13.08756 18.15973,-19.46485 29.06161,-29.06161 12.49449,-10.9987 27.61003,-28.00883 27.09133,-44.33126 -0.60189,-18.93998 -41.93553,-1.78759 -55.66037,-15.26966 -17.23471,-16.92986 -40.687,-30.014 -68.95975,-28.07647 -35.9032,2.46045 -47.90871,31.82472 -50.73467,57.13807 -2.64169,23.6628 10.88077,59.39585 34.47988,62.55635 14.96118,2.00367 30.31333,-17.46351 31.52445,-32.5096 2.39373,-29.73807 -51.22724,-73.39287 -51.22724,-73.39287"
             id="path1"
             inkscape:connector-curvature="0"
             sodipodi:nodetypes="cassssaaac" />
          <path
             style="fill:none;stroke:#000000;stroke-width:2.26345;stroke-linecap:butt;stroke-linejoin:miter;stroke-miterlimit:4;stroke-dasharray:none;stroke-opacity:1"
             d="m 639.72479,401.67771 c -4.82516,-1.90255 -11.18444,-4.23717 -16.99365,2.21656"
             id="path2"
             inkscape:connector-curvature="0"
             sodipodi:nodetypes="cc" />
          <path
             style="fill:#000000;fill-opacity:1;stroke:#000000;stroke-width:2.26345;stroke-linecap:butt;stroke-linejoin:miter;stroke-miterlimit:4;stroke-dasharray:none;stroke-opacity:1"
             d="m 687.93505,400.13843 c 1.29258,10e-4 16.32421,-0.7064 23.95119,0.862 4.61334,0.94868 7.40646,3.63723 8.34291,7.54247 0.72117,3.00743 -3.07701,11.34402 -2.99471,11.45924 0,0 -14.66056,-2.08437 -20.34078,-6.34883 -4.32229,-3.24498 -8.95861,-13.51488 -8.95861,-13.51488 z"
             id="path3"
             inkscape:connector-curvature="0"
             sodipodi:nodetypes="csscac" />
          <path
             style="fill:none;stroke:#000000;stroke-width:2.26345;stroke-linecap:butt;stroke-linejoin:miter;stroke-miterlimit:4;stroke-dasharray:none;stroke-opacity:1"
             d="m 314.45541,508.67452 c 0,0 124.10206,18.95621 137.94857,-25.72282 4.05542,-13.08577 -18.15973,-19.46485 -29.06161,-29.06161 -12.49449,-10.9987 -27.61003,-28.00883 -27.09133,-44.33126 0.60189,-18.93998 42.96233,-0.81638 55.66037,-15.26966 16.07484,-18.29685 25.16348,-30.12656 60.94887,-25.81252 5.05393,0.60927 4.0068,0.0932 5.24659,-2.5732 3.5706,-7.67917 -5.14129,-28.97581 2.47362,-42.68751 5.93576,8.39114 17.20277,16.72853 23.98584,26.53367 6.49618,9.39044 12.30336,26.1094 15.67774,30.45709"
             id="path4"
             inkscape:connector-curvature="0"
             sodipodi:nodetypes="cassssscac" />
          <path
             style="fill:none;stroke:#000000;stroke-width:2.26345;stroke-linecap:butt;stroke-linejoin:miter;stroke-miterlimit:4;stroke-dasharray:none;stroke-opacity:1"
             d="m 477.15561,401.67771 c 4.82516,-1.90255 11.18444,-4.23717 16.99365,2.21656"
             id="path5"
             inkscape:connector-curvature="0"
             sodipodi:nodetypes="cc" />
          <path
             style="fill:#000000;fill-opacity:1;stroke:#000000;stroke-width:2.26345;stroke-linecap:butt;stroke-linejoin:miter;stroke-miterlimit:4;stroke-dasharray:none;stroke-opacity:1"
             d="m 428.84369,400.58742 c -1.29258,10e-4 -16.22255,-1.15539 -23.84953,0.41301 -4.61334,0.94868 -7.40646,3.63723 -8.34291,7.54247 -0.72117,3.00743 3.25593,11.70252 3.17363,11.81774 0,0 14.45828,-2.05325 20.0602,-6.25834 4.32251,-3.2447 8.95861,-13.51488 8.95861,-13.51488 z"
             id="path6"
             inkscape:connector-curvature="0"
             sodipodi:nodetypes="csscac" />
        </g>
        <text
           xml:space="preserve"
           style="font-style:normal;font-variant:normal;font-weight:normal;font-stretch:normal;line-height:0%;font-family:'Segoe Script';-inkscape-font-specification:'Segoe Script';text-align:center;letter-spacing:0px;word-spacing:0px;writing-mode:lr-tb;text-anchor:middle;fill:#000000;fill-opacity:1;stroke:none"
           x="558.35095"
           y="536.09937"
           id="text7"><tspan
             sodipodi:role="line"
             x="558.35095"
             y="536.09937"
             id="tspan6"
             dy="8.8199997"
             style="font-size:30.7748px;line-height:1.25;fill:#000000;fill-opacity:1">TRENDY DOG </tspan><tspan
             style="font-size:30.7748px;line-height:1.25;fill:#000000;fill-opacity:1;stroke:none"
             sodipodi:role="line"
             x="558.35095"
             y="574.56787"
             id="tspan7">psí salón</tspan></text>
      </g>
    </g>
    <g
       id="g4083"
       transform="matrix(10.270604,0,0,10.349347,2988.2572,-13888.658)">
      <path
         sodipodi:nodetypes="cassssaaac"
         inkscape:connector-curvature="0"
         id="path4038"
         d="m -38.040307,1548.4455 c 0,0 -39.891251,5.8399 -44.299457,-8.5377 -1.313338,-4.2835 5.93892,-6.3657 9.504248,-9.5042 4.086172,-3.597 9.029526,-9.16 8.859891,-14.498 -0.19684,-6.1941 -13.714507,-0.5847 -18.20305,-4.9938 -5.636403,-5.5367 -13.30619,-9.8157 -22.552455,-9.1821 -11.7417,0.8047 -15.66796,10.4079 -16.59216,18.6863 -0.86393,7.7387 3.55843,19.4247 11.27623,20.4583 4.89287,0.6553 9.91361,-5.7112 10.309692,-10.6318 0.78284,-9.7255 -16.753252,-24.0023 -16.753252,-24.0023"
         style="fill:none;stroke:#ffffff;stroke-width:0.74023288;stroke-linecap:butt;stroke-linejoin:miter;stroke-miterlimit:4;stroke-opacity:1;stroke-dasharray:none" />
      <path
         sodipodi:nodetypes="cc"
         inkscape:connector-curvature="0"
         id="path4040"
         d="m -90.434484,1513.3281 c -1.578011,-0.6222 -3.657736,-1.3857 -5.557568,0.7249"
         style="fill:none;stroke:#ffffff;stroke-width:0.74023288;stroke-linecap:butt;stroke-linejoin:miter;stroke-miterlimit:4;stroke-opacity:1;stroke-dasharray:none" />
      <path
         sodipodi:nodetypes="csscac"
         inkscape:connector-curvature="0"
         id="path4042"
         d="m -74.667903,1512.8247 c 0.422723,4e-4 5.338635,-0.231 7.832947,0.2819 1.508737,0.3103 2.422193,1.1895 2.728448,2.4667 0.235849,0.9836 -0.590729,4.0701 -0.563814,4.1078 0,0 -5.097144,-0.9112 -7.067776,-2.4365 -1.397783,-1.0819 -2.929805,-4.4199 -2.929805,-4.4199 z"
         style="fill:#ffffff;stroke:#ffffff;stroke-width:0.74023288;stroke-linecap:butt;stroke-linejoin:miter;stroke-miterlimit:4;stroke-opacity:1;stroke-dasharray:none" />
      <path
         sodipodi:nodetypes="cassssscac"
         inkscape:connector-curvature="0"
         id="path4044"
         d="m -195.99494,1548.4455 c 0,0 39.89125,5.8399 44.29945,-8.5377 1.31334,-4.2835 -5.93892,-6.3657 -9.50424,-9.5042 -4.08618,-3.597 -9.02953,-9.16 -8.8599,-14.498 0.19684,-6.1941 14.05031,-0.267 18.20305,-4.9938 5.25709,-5.9838 8.22942,-9.8525 19.93259,-8.4417 1.65283,0.1993 1.31038,0.031 1.71584,-0.8415 1.16772,-2.5114 -1.6814,-9.4762 0.80897,-13.9604 1.94121,2.7442 5.62595,5.4708 7.84427,8.6775 2.1245,3.071 4.02367,8.5387 5.12722,9.9606"
         style="fill:none;stroke:#ffffff;stroke-width:0.74023288;stroke-linecap:butt;stroke-linejoin:miter;stroke-miterlimit:4;stroke-opacity:1;stroke-dasharray:none" />
      <path
         sodipodi:nodetypes="cc"
         inkscape:connector-curvature="0"
         id="path4046"
         d="m -143.60077,1513.3281 c 1.57801,-0.6222 3.65774,-1.3857 5.55757,0.7249"
         style="fill:none;stroke:#ffffff;stroke-width:0.74023288;stroke-linecap:butt;stroke-linejoin:miter;stroke-miterlimit:4;stroke-opacity:1;stroke-dasharray:none" />
      <path
         sodipodi:nodetypes="csscac"
         inkscape:connector-curvature="0"
         id="path4048"
         d="m -159.36735,1512.8247 c -0.42272,4e-4 -5.33863,-0.231 -7.83294,0.2819 -1.50874,0.3103 -2.4222,1.1895 -2.72845,2.4667 -0.23585,0.9836 0.59073,4.0701 0.56381,4.1078 0,0 5.09715,-0.9112 7.06778,-2.4365 1.39778,-1.0819 2.9298,-4.4199 2.9298,-4.4199 z"
         style="fill:#ffffff;stroke:#ffffff;stroke-width:0.74023288;stroke-linecap:butt;stroke-linejoin:miter;stroke-miterlimit:4;stroke-opacity:1;stroke-dasharray:none" />
      <text
         xml:space="preserve"
         style="font-style:normal;font-variant:normal;font-weight:normal;font-stretch:normal;line-height:0%;font-family:'Segoe Script';-inkscape-font-specification:'Segoe Script';text-align:center;letter-spacing:0px;word-spacing:0px;writing-mode:lr-tb;text-anchor:middle;fill:#000000;fill-opacity:1;stroke:#ffffff;stroke-width:0.41782"
         x="-117.00821"
         y="1559.2108"
         id="text4050"><tspan
           style="font-size:12.8583px;line-height:1.25;fill:#ffffff;stroke:none"
           sodipodi:role="line"
           x="-117.00821"
           y="1559.2108"
           id="tspan4052"
           dy="3.72">TRENDY DOG </tspan><tspan
           style="font-size:12.8583px;line-height:1.25;fill:#ffffff;stroke:none"
           sodipodi:role="line"
           x="-117.00821"
           y="1575.2837"
           id="tspan4096"
           dy="0.53999996">psí salón</tspan><tspan
           style="font-size:12.8583px;line-height:1.25;fill:#ffffff;stroke:none"
           sodipodi:role="line"
           x="-117.00821"
           y="1591.3567"
           id="tspan4102"> </tspan><tspan
           style="font-weight:normal;font-size:10.5143px;line-height:1.25;-inkscape-font-specification:'Segoe Script';fill:#ffffff;stroke:none"
           sodipodi:role="line"
           x="-117.00821"
           y="1607.4296"
           id="tspan4104"
           dy="-9.1999998">0908 030 410</tspan></text>
    </g>
  </g>
</svg>
