<svg id="visual" viewBox="0 0 900 600" width="900" height="600" xmlns="http://www.w3.org/2000/svg" xmlns:xlink="http://www.w3.org/1999/xlink" version="1.1"><rect x="0" y="0" width="900" height="600" fill="#000000"></rect><defs><linearGradient id="grad1_0" x1="33.3%" y1="0%" x2="100%" y2="100%"><stop offset="20%" stop-color="#ff0066" stop-opacity="1"></stop><stop offset="80%" stop-color="#ff0066" stop-opacity="1"></stop></linearGradient></defs><defs><linearGradient id="grad1_1" x1="33.3%" y1="0%" x2="100%" y2="100%"><stop offset="20%" stop-color="#ff0066" stop-opacity="1"></stop><stop offset="80%" stop-color="#e60054" stop-opacity="1"></stop></linearGradient></defs><defs><linearGradient id="grad1_2" x1="33.3%" y1="0%" x2="100%" y2="100%"><stop offset="20%" stop-color="#cd0042" stop-opacity="1"></stop><stop offset="80%" stop-color="#e60054" stop-opacity="1"></stop></linearGradient></defs><defs><linearGradient id="grad1_3" x1="33.3%" y1="0%" x2="100%" y2="100%"><stop offset="20%" stop-color="#cd0042" stop-opacity="1"></stop><stop offset="80%" stop-color="#b40031" stop-opacity="1"></stop></linearGradient></defs><defs><linearGradient id="grad1_4" x1="33.3%" y1="0%" x2="100%" y2="100%"><stop offset="20%" stop-color="#9b0022" stop-opacity="1"></stop><stop offset="80%" stop-color="#b40031" stop-opacity="1"></stop></linearGradient></defs><defs><linearGradient id="grad1_5" x1="33.3%" y1="0%" x2="100%" y2="100%"><stop offset="20%" stop-color="#9b0022" stop-opacity="1"></stop><stop offset="80%" stop-color="#820012" stop-opacity="1"></stop></linearGradient></defs><defs><linearGradient id="grad1_6" x1="33.3%" y1="0%" x2="100%" y2="100%"><stop offset="20%" stop-color="#6a0000" stop-opacity="1"></stop><stop offset="80%" stop-color="#820012" stop-opacity="1"></stop></linearGradient></defs><defs><linearGradient id="grad1_7" x1="33.3%" y1="0%" x2="100%" y2="100%"><stop offset="20%" stop-color="#6a0000" stop-opacity="1"></stop><stop offset="80%" stop-color="#000000" stop-opacity="1"></stop></linearGradient></defs><defs><linearGradient id="grad2_0" x1="0%" y1="0%" x2="66.7%" y2="100%"><stop offset="20%" stop-color="#ff0066" stop-opacity="1"></stop><stop offset="80%" stop-color="#ff0066" stop-opacity="1"></stop></linearGradient></defs><defs><linearGradient id="grad2_1" x1="0%" y1="0%" x2="66.7%" y2="100%"><stop offset="20%" stop-color="#e60054" stop-opacity="1"></stop><stop offset="80%" stop-color="#ff0066" stop-opacity="1"></stop></linearGradient></defs><defs><linearGradient id="grad2_2" x1="0%" y1="0%" x2="66.7%" y2="100%"><stop offset="20%" stop-color="#e60054" stop-opacity="1"></stop><stop offset="80%" stop-color="#cd0042" stop-opacity="1"></stop></linearGradient></defs><defs><linearGradient id="grad2_3" x1="0%" y1="0%" x2="66.7%" y2="100%"><stop offset="20%" stop-color="#b40031" stop-opacity="1"></stop><stop offset="80%" stop-color="#cd0042" stop-opacity="1"></stop></linearGradient></defs><defs><linearGradient id="grad2_4" x1="0%" y1="0%" x2="66.7%" y2="100%"><stop offset="20%" stop-color="#b40031" stop-opacity="1"></stop><stop offset="80%" stop-color="#9b0022" stop-opacity="1"></stop></linearGradient></defs><defs><linearGradient id="grad2_5" x1="0%" y1="0%" x2="66.7%" y2="100%"><stop offset="20%" stop-color="#820012" stop-opacity="1"></stop><stop offset="80%" stop-color="#9b0022" stop-opacity="1"></stop></linearGradient></defs><defs><linearGradient id="grad2_6" x1="0%" y1="0%" x2="66.7%" y2="100%"><stop offset="20%" stop-color="#820012" stop-opacity="1"></stop><stop offset="80%" stop-color="#6a0000" stop-opacity="1"></stop></linearGradient></defs><defs><linearGradient id="grad2_7" x1="0%" y1="0%" x2="66.7%" y2="100%"><stop offset="20%" stop-color="#000000" stop-opacity="1"></stop><stop offset="80%" stop-color="#6a0000" stop-opacity="1"></stop></linearGradient></defs><g transform="translate(900, 0)"><path d="M0 243.4C-14.2 224.7 -28.4 206 -46.5 203.8C-64.6 201.6 -86.7 215.9 -102.4 212.6C-118.1 209.4 -127.3 188.6 -138.4 173.6C-149.5 158.5 -162.5 149.1 -171.2 136.5C-179.9 124 -184.3 108.2 -196.4 94.6C-208.5 81 -228.2 69.6 -237.3 54.2C-246.4 38.8 -244.9 19.4 -243.4 0L0 0Z" fill="#5f0000"></path><path d="M0 213C-12.4 196.6 -24.8 180.2 -40.7 178.3C-56.6 176.4 -75.9 188.9 -89.6 186.1C-103.3 183.2 -111.4 165.1 -121.1 151.9C-130.8 138.7 -142.2 130.5 -149.8 119.5C-157.4 108.5 -161.3 94.7 -171.9 82.8C-182.4 70.9 -199.7 60.9 -207.6 47.4C-215.6 33.9 -214.3 17 -213 0L0 0Z" fill="#760005"></path><path d="M0 182.5C-10.6 168.5 -21.3 154.5 -34.9 152.8C-48.5 151.2 -65 161.9 -76.8 159.5C-88.5 157 -95.5 141.5 -103.8 130.2C-112.1 118.9 -121.9 111.8 -128.4 102.4C-134.9 93 -138.3 81.1 -147.3 70.9C-156.4 60.7 -171.1 52.2 -178 40.6C-184.8 29.1 -183.7 14.5 -182.5 0L0 0Z" fill="#8f001a"></path><path d="M0 152.1C-8.9 140.4 -17.7 128.7 -29.1 127.3C-40.4 126 -54.2 134.9 -64 132.9C-73.8 130.9 -79.6 117.9 -86.5 108.5C-93.5 99.1 -101.6 93.2 -107 85.3C-112.5 77.5 -115.2 67.6 -122.8 59.1C-130.3 50.6 -142.6 43.5 -148.3 33.8C-154 24.2 -153 12.1 -152.1 0L0 0Z" fill="#a70029"></path><path d="M0 121.7C-7.1 112.3 -14.2 103 -23.3 101.9C-32.3 100.8 -43.4 107.9 -51.2 106.3C-59 104.7 -63.7 94.3 -69.2 86.8C-74.8 79.2 -81.3 74.6 -85.6 68.3C-90 62 -92.2 54.1 -98.2 47.3C-104.2 40.5 -114.1 34.8 -118.6 27.1C-123.2 19.4 -122.4 9.7 -121.7 0L0 0Z" fill="#c00039"></path><path d="M0 91.3C-5.3 84.3 -10.6 77.2 -17.4 76.4C-24.2 75.6 -32.5 80.9 -38.4 79.7C-44.3 78.5 -47.7 70.7 -51.9 65.1C-56.1 59.4 -60.9 55.9 -64.2 51.2C-67.5 46.5 -69.1 40.6 -73.7 35.5C-78.2 30.4 -85.6 26.1 -89 20.3C-92.4 14.5 -91.8 7.3 -91.3 0L0 0Z" fill="#d9004b"></path><path d="M0 60.8C-3.5 56.2 -7.1 51.5 -11.6 50.9C-16.2 50.4 -21.7 54 -25.6 53.2C-29.5 52.3 -31.8 47.2 -34.6 43.4C-37.4 39.6 -40.6 37.3 -42.8 34.1C-45 31 -46.1 27 -49.1 23.6C-52.1 20.2 -57 17.4 -59.3 13.5C-61.6 9.7 -61.2 4.8 -60.8 0L0 0Z" fill="#f2005d"></path><path d="M0 30.4C-1.8 28.1 -3.5 25.7 -5.8 25.5C-8.1 25.2 -10.8 27 -12.8 26.6C-14.8 26.2 -15.9 23.6 -17.3 21.7C-18.7 19.8 -20.3 18.6 -21.4 17.1C-22.5 15.5 -23 13.5 -24.6 11.8C-26.1 10.1 -28.5 8.7 -29.7 6.8C-30.8 4.8 -30.6 2.4 -30.4 0L0 0Z" fill="#ff0066"></path></g><g transform="translate(0, 600)"><path d="M0 -243.4C15.2 -225.5 30.4 -207.6 45.8 -200.8C61.3 -194.1 77.1 -198.5 96.3 -200C115.6 -201.6 138.3 -200.3 150.3 -188.4C162.3 -176.5 163.6 -154.1 175.1 -139.7C186.7 -125.3 208.5 -119 219.3 -105.6C230.1 -92.2 229.9 -71.7 232 -53C234.2 -34.2 238.8 -17.1 243.4 0L0 0Z" fill="#5f0000"></path><path d="M0 -213C13.3 -197.3 26.6 -181.6 40.1 -175.7C53.7 -169.8 67.5 -173.7 84.3 -175C101.1 -176.4 121 -175.3 131.5 -164.9C142 -154.5 143.1 -134.8 153.2 -122.2C163.3 -109.6 182.4 -104.1 191.9 -92.4C201.3 -80.7 201.1 -62.8 203 -46.3C204.9 -29.9 208.9 -15 213 0L0 0Z" fill="#760005"></path><path d="M0 -182.5C11.4 -169.1 22.8 -155.7 34.4 -150.6C46 -145.6 57.8 -148.8 72.2 -150C86.7 -151.2 103.7 -150.2 112.7 -141.3C121.7 -132.4 122.7 -115.5 131.3 -104.7C140 -94 156.4 -89.2 164.5 -79.2C172.5 -69.2 172.4 -53.8 174 -39.7C175.7 -25.6 179.1 -12.8 182.5 0L0 0Z" fill="#8f001a"></path><path d="M0 -152.1C9.5 -140.9 19 -129.7 28.6 -125.5C38.3 -121.3 48.2 -124 60.2 -125C72.2 -126 86.4 -125.2 93.9 -117.8C101.4 -110.3 102.2 -96.3 109.5 -87.3C116.7 -78.3 130.3 -74.4 137 -66C143.8 -57.6 143.7 -44.8 145 -33.1C146.4 -21.4 149.2 -10.7 152.1 0L0 0Z" fill="#a70029"></path><path d="M0 -121.7C7.6 -112.7 15.2 -103.8 22.9 -100.4C30.7 -97 38.5 -99.2 48.2 -100C57.8 -100.8 69.1 -100.2 75.1 -94.2C81.1 -88.3 81.8 -77 87.6 -69.8C93.3 -62.6 104.2 -59.5 109.6 -52.8C115 -46.1 114.9 -35.9 116 -26.5C117.1 -17.1 119.4 -8.5 121.7 0L0 0Z" fill="#c00039"></path><path d="M0 -91.3C5.7 -84.6 11.4 -77.8 17.2 -75.3C23 -72.8 28.9 -74.4 36.1 -75C43.3 -75.6 51.8 -75.1 56.3 -70.7C60.8 -66.2 61.3 -57.8 65.7 -52.4C70 -47 78.2 -44.6 82.2 -39.6C86.3 -34.6 86.2 -26.9 87 -19.9C87.8 -12.8 89.5 -6.4 91.3 0L0 0Z" fill="#d9004b"></path><path d="M0 -60.8C3.8 -56.4 7.6 -51.9 11.5 -50.2C15.3 -48.5 19.3 -49.6 24.1 -50C28.9 -50.4 34.6 -50.1 37.6 -47.1C40.6 -44.1 40.9 -38.5 43.8 -34.9C46.7 -31.3 52.1 -29.7 54.8 -26.4C57.5 -23.1 57.5 -17.9 58 -13.2C58.6 -8.5 59.7 -4.3 60.8 0L0 0Z" fill="#f2005d"></path><path d="M0 -30.4C1.9 -28.2 3.8 -25.9 5.7 -25.1C7.7 -24.3 9.6 -24.8 12 -25C14.4 -25.2 17.3 -25 18.8 -23.6C20.3 -22.1 20.4 -19.3 21.9 -17.5C23.3 -15.7 26.1 -14.9 27.4 -13.2C28.8 -11.5 28.7 -9 29 -6.6C29.3 -4.3 29.8 -2.1 30.4 0L0 0Z" fill="#ff0066"></path></g></svg>